<svg xmlns="http://www.w3.org/2000/svg" viewBox="0 0 458.34 410.92"><defs><style>.cls-1{fill:#4a6068;}.cls-2{fill:#fff;}.cls-3{fill:#df6f3c;}</style></defs><g id="Calque_2" data-name="Calque 2"><g id="Capa_1" data-name="Capa 1"><path class="cls-1" d="M182.19,181.21l0,0h0Z"/><path class="cls-1" d="M177.39,177.69a12.78,12.78,0,0,1-.86-1.22,12.78,12.78,0,0,0,.86,1.22,13.31,13.31,0,0,0,1.16,1.22c.19.17.41.32.62.49-.21-.17-.43-.32-.62-.49A13.31,13.31,0,0,1,177.39,177.69Z"/><path class="cls-1" d="M196.19,195.87c-.53.17-1.08.33-1.63.47l-.68.16q-.74.18-1.44.3l-.73.12c-.48.07-1,.14-1.49.19l-.59,0h-.07c-.73.05-1.41.08-2.12.08H187c-.66,0-1.32,0-2-.1-.22,0-.44,0-.64-.06-.87-.09-1.67-.21-2.42-.35l-.36-.08c-.57-.11-1.15-.25-1.75-.42h-1.4l-2.78-1.5a27,27,0,0,1-7.25-4.76,26.6,26.6,0,0,1-2.63-2.78,26,26,0,0,1-2.21-3.13,26.84,26.84,0,0,1-1.75-3.47,25.67,25.67,0,0,1-1.66-6.1q-18.81,33.94-18.83,76.66,0,65.47,45.74,112.61t123.43,47.16q46.77,0,91.79-19.24A19.47,19.47,0,1,0,387,355.86q-39.13,16.83-76.59,16.83-59.49,0-92.18-36.27t-32.62-85.07q0-31,12-56c-.32.12-.62.24-.93.34Z"/><path class="cls-1" d="M184.74,182c-.36-.08-.73-.17-1.09-.28l-.3-.08h0l.3.08c.36.11.73.2,1.09.28h.06l.21,0-.21,0Z"/><path class="cls-1" d="M175,172.08c0-.23-.05-.46-.06-.7C174.94,171.62,175,171.85,175,172.08Z"/><path class="cls-1" d="M414.56,131.44Q373.9,94,314.84,91.33a26,26,0,0,1-.49,4.7c-.05.26-.11.59-.2,1v.07a25.18,25.18,0,0,1-2,5.48,24,24,0,0,1-1.43,2.5,25.59,25.59,0,0,1-2.59,3.35,26.48,26.48,0,0,1-2.64,2.57c-.19.17-.38.33-.58.48l-16.78,13.39-5.86,4.67a131.64,131.64,0,0,1,24.15-2.17q46.88,0,79.2,29.16t32.29,73.4c0,20.16-5,37-14.81,50.36S383,300.34,372.35,300.34c-5.74,0-8.61-3.06-8.61-9.26a171.24,171.24,0,0,1,1.11-17.68L377,174.17H335.23l-2.67,9.72q-16-13-35-13-30.13,0-51.6,24c-14.36,16-21.47,36.6-21.47,61.78q0,36.9,19,59.57c12.72,15.13,28,22.63,45.87,22.63q24,0,41-20.09Q343.22,338,368.18,338q36.69,0,63.41-32t26.75-77Q458.34,171.82,414.56,131.44ZM318.4,281.56C311,291.47,302.22,296.5,292,296.5q-10.47,0-16.83-11c-4.31-7.31-6.46-16.38-6.46-27.27q0-20.16,9-32.49c6-8.22,13.44-12.4,22.31-12.4,7.7,0,14.55,3.07,20.55,9.27s9,14.41,9,24.72A56.55,56.55,0,0,1,318.4,281.56Z"/><path class="cls-1" d="M299.6,93.26a2.33,2.33,0,0,1-.05.28c-.06.27-.15.53-.23.79.08-.26.17-.52.23-.79a2.33,2.33,0,0,0,.05-.28,9.81,9.81,0,0,0,.24-2h0A9.81,9.81,0,0,1,299.6,93.26Z"/><path class="cls-1" d="M189.46,182.09l-.72.09-.29,0-.5,0,.5,0,.29,0,.72-.09.35-.06h0Z"/><path class="cls-1" d="M194.5,180.22l0,0,.15-.1-.15.1Z"/><path class="cls-1" d="M297,98.35c-.2.22-.4.43-.62.64.22-.2.42-.42.62-.64a11.17,11.17,0,0,0,1.14-1.45l.26-.46-.26.46A11.17,11.17,0,0,1,297,98.35Z"/><path class="cls-2" d="M.78,117.85a12.08,12.08,0,0,0,.73,1.49c.05.09.12.17.18.26-.06-.09-.13-.17-.18-.26A12.08,12.08,0,0,1,.78,117.85Z"/><path class="cls-2" d="M174.91,170.86c0,.18,0,.35,0,.52,0-.17,0-.34,0-.52Z"/><path class="cls-2" d="M182.23,181.23h0c.37.15.75.28,1.12.4h0c-.37-.12-.75-.25-1.12-.4Z"/><path class="cls-2" d="M187.34,182.25c-.36,0-.72,0-1.08-.06l-.3,0-1-.14,1,.14.3,0c.36,0,.72.05,1.08.06h.1l.51,0-.51,0Z"/><path class="cls-2" d="M179.17,179.4c.24.19.46.39.72.57a12.66,12.66,0,0,0,2.3,1.24,12.66,12.66,0,0,1-2.3-1.24C179.63,179.79,179.41,179.59,179.17,179.4Z"/><path class="cls-2" d="M298.37,96.44c.12-.2.24-.4.35-.61a12,12,0,0,0,.6-1.5,12,12,0,0,1-.6,1.5C298.61,96,298.49,96.24,298.37,96.44Z"/><path class="cls-2" d="M175.7,174.87a10.69,10.69,0,0,1-.71-2.79,10.69,10.69,0,0,0,.71,2.79,11.23,11.23,0,0,0,.74,1.47.6.6,0,0,1,.09.13.6.6,0,0,0-.09-.13A11.23,11.23,0,0,1,175.7,174.87Z"/><path class="cls-2" d="M295.57,99.69,278.76,113.1l-83.14,66.33c-.26.21-.54.41-.82.6l-.11.07.11-.07c.28-.19.56-.39.82-.6l83.14-66.33,16.81-13.41.1-.09c.24-.19.46-.4.68-.61-.22.21-.44.42-.68.61Z"/><path class="cls-3" d="M299.55,88.71a9.81,9.81,0,0,0-.46-1.42,11.33,11.33,0,0,0-1.72-2.94,11.72,11.72,0,0,0-1.8-1.79L277.24,67.94l-26-20.76L217.09,20,195.62,2.83h0l-.21-.15c-.2-.15-.4-.3-.61-.44l-.12-.07-.15-.1-.31-.19-.3-.18-.3-.16L193,1.21h0l-.25-.12c-.31-.14-.62-.26-.94-.37l-.08,0h0a8.29,8.29,0,0,0-.85-.25l-.32-.08-.26,0c-.14,0-.28-.07-.43-.09l-.34-.06c-.24,0-.49-.07-.74-.09l-.27,0c-.34,0-.68,0-1,0h-.14c-.35,0-.7,0-1,.05l-.3,0-.56.08c-.2,0-.4,0-.59.09h-.08l-.45.11-.62.16-.29.08a11.57,11.57,0,0,0-1.12.41A12.19,12.19,0,0,0,181,1.6c-.39.21-.76.44-1.12.68s-.65.48-1,.73a12.5,12.5,0,0,0-1,.93,10.1,10.1,0,0,0-1.06,1.29,10.75,10.75,0,0,0-2,5.75c0,.13,0,.27,0,.41V57H12.49a13.08,13.08,0,0,0-8.83,3.34A10.88,10.88,0,0,0,0,68.35v45.56a10.45,10.45,0,0,0,.78,3.94,12.08,12.08,0,0,0,.73,1.49c.05.09.12.17.18.26a11,11,0,0,0,1.16,1.55c.23.25.47.48.71.71s.51.45.77.66l.22.18a11.89,11.89,0,0,0,1.45.92c.18.1.35.21.54.3l.49.22c.2.09.39.18.6.26a13.56,13.56,0,0,0,2,.59,13.19,13.19,0,0,0,2.83.31H174.91v45.56c0,.18,0,.35,0,.52s0,.47.06.7a10.69,10.69,0,0,0,.71,2.79,11.23,11.23,0,0,0,.74,1.47.6.6,0,0,1,.09.13,12.78,12.78,0,0,0,.86,1.22,13.31,13.31,0,0,0,1.16,1.22c.19.17.41.32.62.49s.46.39.72.57a12.66,12.66,0,0,0,2.3,1.24l0,0h0c.37.15.75.28,1.12.4l.3.08c.36.11.73.2,1.09.28h.06l.21,0,1,.14.3,0c.36,0,.72.05,1.08.06h.1l.51,0,.5,0,.29,0,.72-.09.35-.06h.06l.62-.13.32-.07c.3-.08.59-.16.88-.26l.09,0c.31-.1.62-.23.93-.36L193,181l.64-.31.3-.17.57-.34,0,0,.15-.1.11-.07c.28-.19.56-.39.82-.6l83.14-66.33,16.81-13.41.1-.09c.24-.19.46-.4.68-.61s.42-.42.62-.64a11.17,11.17,0,0,0,1.14-1.45l.26-.46c.12-.2.24-.4.35-.61a12,12,0,0,0,.6-1.5c.08-.26.17-.52.23-.79a2.33,2.33,0,0,0,.05-.28,9.81,9.81,0,0,0,.24-2v-.09A10.34,10.34,0,0,0,299.55,88.71Z"/><path class="cls-2" d="M193.63,180.73,193,181l-.28.13c-.31.13-.62.26-.93.36l-.09,0c-.29.1-.58.18-.88.26l-.32.07-.62.13.62-.13.32-.07c.3-.08.59-.16.88-.26l.09,0c.31-.1.62-.23.93-.36L193,181l.64-.31.3-.17a6.59,6.59,0,0,0,.57-.34l-.57.34Z"/></g></g></svg>