<svg xmlns="http://www.w3.org/2000/svg" viewBox="0 0 457.62 328.34"><defs><style>.cls-1{fill:#4a6068;}.cls-2{fill:#fff;}.cls-3{fill:#df6f3c;}</style></defs><g id="Calque_2" data-name="Calque 2"><g id="Capa_1" data-name="Capa 1"><path class="cls-1" d="M454.43,108.75l-98,100.71,98,101.19A36.06,36.06,0,0,0,457.62,296V123.46A36.14,36.14,0,0,0,454.43,108.75Z"/><path class="cls-1" d="M317.47,249.74c-10.46,10.62-26.23,10.61-36.69,0l-25-25.84L157.3,325.57a24.5,24.5,0,0,0,11.19,2.77H429.76A24.54,24.54,0,0,0,441,325.57L342.46,223.9Z"/><path class="cls-1" d="M314.35,96c-.05.26-.11.6-.2,1v.06a25.18,25.18,0,0,1-2,5.48,24,24,0,0,1-1.43,2.5,26.35,26.35,0,0,1-2.59,3.36,29.63,29.63,0,0,1-2.61,2.54l-.58.48-16.81,13.41-56.85,45.35,61.52,63.33a8.93,8.93,0,0,0,12.68,0L403,133.07v-.45l37.66-38.76a24.35,24.35,0,0,0-11.15-2.75H314.84v0A25.6,25.6,0,0,1,314.35,96Z"/><path class="cls-1" d="M215.69,182.61,205,191.13c-.56.45-1.15.88-1.8,1.32l-.58.38c-.46.29-.89.55-1.31.79l-.7.38c-.44.23-.89.46-1.35.67l-.64.28c-.69.3-1.35.56-2,.78l-.41.13q-.81.27-1.65.48l-.68.17c-.49.11-1,.21-1.44.29l-.73.12c-.48.07-1,.13-1.45.18l-.68.07c-.73.05-1.43.08-2.14.08H187c-.66,0-1.33,0-2-.1l-.66-.06c-.87-.09-1.66-.21-2.4-.35l-.36-.08c-.68-.14-1.36-.31-2.07-.51l-.64-.19c-.69-.22-1.33-.44-1.93-.68l-.38-.13-.35-.16-.22-.09-.09,0a27.64,27.64,0,0,1-4.49-2.49,26.93,26.93,0,0,1-5.64-5.15,26.12,26.12,0,0,1-2.21-3.14,27,27,0,0,1-1.75-3.48,25.52,25.52,0,0,1-1.92-9.72V140.3H140.63V296a36.06,36.06,0,0,0,3.17,14.66l98-101.19Z"/><rect class="cls-2" x="202.97" y="165.49" width="20.25" transform="translate(-56.69 169.01) rotate(-38.58)"/><path class="cls-2" d="M297.37,84.35a11,11,0,0,1,1.9,3.43,11,11,0,0,0-1.9-3.43,11.72,11.72,0,0,0-1.8-1.79l-29.71-23.7,29.71,23.7A11.72,11.72,0,0,1,297.37,84.35Z"/><polygon class="cls-2" points="221.01 159.17 224.94 156.04 221.01 159.17 221.01 159.17"/><path class="cls-3" d="M299.84,91.11a10.17,10.17,0,0,0-.29-2.4,7.64,7.64,0,0,0-.28-.93,11,11,0,0,0-1.9-3.43,11.72,11.72,0,0,0-1.8-1.79l-29.71-23.7L251.22,47.18l-4.57-3.65-51-40.71h0c-.27-.21-.54-.4-.82-.59l-.27-.17-.61-.37-.3-.16L193,1.21l-.27-.12c-.31-.14-.62-.26-.94-.37l-.12,0a8.29,8.29,0,0,0-.85-.25l-.32-.08-.69-.14-.34-.06c-.24,0-.49-.07-.74-.09l-.27,0c-.34,0-.68,0-1,0h-.14c-.35,0-.7,0-1,.05l-.3,0c-.39,0-.77.1-1.15.17h-.08l-.33.08c-.25.06-.5.11-.74.19l-.19,0-.1,0c-.25.08-.5.18-.75.27s-.25.08-.37.14A12.09,12.09,0,0,0,178,3.94a10.1,10.1,0,0,0-1.06,1.29,11.69,11.69,0,0,0-1,1.75c-.13.29-.25.58-.36.88a10.49,10.49,0,0,0-.62,3.53V57H12.49a13.3,13.3,0,0,0-6.17,1.5,12.47,12.47,0,0,0-2.66,1.84A10.88,10.88,0,0,0,0,68.34v45.57a10.61,10.61,0,0,0,1.51,5.43,11.14,11.14,0,0,0,1.34,1.81,12.57,12.57,0,0,0,1.7,1.55,12.92,12.92,0,0,0,2,1.22,10.59,10.59,0,0,0,1.09.48,13.45,13.45,0,0,0,4.86.9H174.91v45.56a11.7,11.7,0,0,0,.07,1.19,10.35,10.35,0,0,0,.72,2.82,11.29,11.29,0,0,0,.7,1.39s0,.05,0,.08a11.33,11.33,0,0,0,.95,1.35,13.31,13.31,0,0,0,1.16,1.22c.34.3.71.58,1.08.86l.26.2a13.1,13.1,0,0,0,2.34,1.26h0c.37.15.75.28,1.12.4l.3.08c.36.11.73.2,1.09.28h.06c.38.07.77.13,1.16.17l.3,0c.36,0,.72.05,1.08.06h.1c.32,0,.64,0,1,0h0l.29,0h.07l.65-.08.35-.06.68-.14.32-.07c.3-.08.59-.16.88-.26l.09,0c.31-.1.62-.23.93-.36L193,181l.64-.31.29-.16h0l.14-.08c.16-.09.32-.18.47-.28l.26-.17.16-.12a8,8,0,0,0,.66-.48l9.56-7.63L221,159.17l3.93-3.13,53.82-42.94,16.81-13.41.1-.09a12.84,12.84,0,0,0,1.3-1.25,11.17,11.17,0,0,0,1.14-1.45c.22-.35.42-.71.61-1.07s.19-.45.29-.68.17-.42.25-.63.21-.65.29-1a2.33,2.33,0,0,0,.05-.28,10.15,10.15,0,0,0,.24-2.13Z"/></g></g></svg>