<svg xmlns="http://www.w3.org/2000/svg" viewBox="0 0 458.34 410.92"><defs><style>.cls-1{fill:#2b8e8e;}.cls-2{fill:#fff;}.cls-3{fill:#ea922e;}</style></defs><g id="Calque_2" data-name="Calque 2"><g id="Capa_1" data-name="Capa 1"><path class="cls-1" d="M164.73,123.75a3.07,3.07,0,0,0,.31.17l.3.14-.3-.14A3.07,3.07,0,0,1,164.73,123.75Z"/><path class="cls-1" d="M228.71,140.3h-7.62a111.58,111.58,0,0,1,23.16,16.19q32.29,29.16,32.3,73.4c0,20.16-5,37-14.81,50.36s-20.1,20.09-30.73,20.09c-5.74,0-8.61-3.06-8.61-9.26a171.24,171.24,0,0,1,1.11-17.68l12.13-99.23H193.89l-2.68,9.72c-10.63-8.67-22.31-13-35-13q-30.15,0-51.61,24T83.18,256.63q0,36.9,19,59.57c12.72,15.13,28,22.63,45.86,22.63q24,0,41-20.09Q201.89,338,226.83,338q36.71,0,63.42-32T317,229q0-51-34.88-88.67h-53.4ZM177.06,281.56c-7.38,9.91-16.18,14.94-26.42,14.94q-10.48,0-16.84-11c-4.3-7.31-6.45-16.38-6.45-27.27q0-20.16,9-32.49c6-8.22,13.44-12.4,22.31-12.4,7.7,0,14.55,3.07,20.55,9.27s9,14.41,9,24.72A56.48,56.48,0,0,1,177.06,281.56Z"/><path class="cls-1" d="M143.5,113.91V92.26Q88.6,98.32,48.08,137,0,182.88,0,251.15q0,65.47,45.73,112.61,45.9,47.16,123.43,47.16,46.79,0,91.79-19.24a19.47,19.47,0,1,0-15.26-35.82q-39.15,16.83-76.59,16.83-59.5,0-92.18-36.27T44.3,251.35q0-53,35-88.53Q108.1,133.5,148,128.4c-.31-.46-.61-.91-.89-1.38A25.63,25.63,0,0,1,143.5,113.91Z"/><path class="cls-2" d="M341.94,181.65a.76.76,0,0,0,.2.06c.23.07.46.12.69.17-.23,0-.46-.1-.69-.17A1.52,1.52,0,0,1,341.94,181.65Z"/><path class="cls-2" d="M340.73,181.23h0l.7.25-.7-.25Z"/><path class="cls-2" d="M345.78,0h0c-.35,0-.7,0-1,.05h0C345.08,0,345.43,0,345.78,0Z"/><path class="cls-2" d="M337.05,178.91c-.28-.26-.53-.54-.78-.82.25.28.5.56.78.82a11.79,11.79,0,0,0,1.34,1.06,12.88,12.88,0,0,0,1.35.79,12.88,12.88,0,0,1-1.35-.79A11.79,11.79,0,0,1,337.05,178.91Z"/><path class="cls-2" d="M349.29.44c.28.07.57.15.85.25h0c-.28-.1-.57-.18-.85-.25L349,.36l-.36-.07.36.07Z"/><path class="cls-2" d="M339,1.9l-.63.38a12.57,12.57,0,0,0-1.32,1.07,12.57,12.57,0,0,1,1.32-1.07Z"/><path class="cls-2" d="M341.91.6l-.07,0a11.39,11.39,0,0,0-1.11.41,10.68,10.68,0,0,1,1.12-.41Z"/><path class="cls-2" d="M353.8,2.59c-.17-.12-.33-.25-.5-.36l-.11-.07.11.07C353.47,2.34,353.63,2.47,353.8,2.59Z"/><path class="cls-2" d="M352.11,1.53l.31.16.27.17-.27-.17-.31-.16-.65-.32-.15-.07.15.07Z"/><path class="cls-2" d="M343.9,182.09l.55.08.3,0-.3,0Z"/><path class="cls-2" d="M158.5,68.35a10.59,10.59,0,0,1,2-6.18,10.59,10.59,0,0,0-2,6.18V91.22h0Z"/><path class="cls-2" d="M352.13,180.73l-.64.31-.12.06.12-.06.64-.31.3-.17.14-.08-.14.08Z"/><path class="cls-2" d="M346.94,182.21c-.33,0-.67,0-1,0h-.09c-.36,0-.73,0-1.09-.06.36,0,.73.05,1.09.06h.09c.34,0,.68,0,1,0l.3,0,.47-.06-.47.06Z"/><path class="cls-2" d="M350.19,181.56c-.29.1-.59.18-.88.26l-.32.07-.38.08.38-.08.32-.07c.29-.08.59-.16.88-.26l.08,0c.14,0,.27-.1.41-.15-.14.05-.27.11-.41.15Z"/><path class="cls-2" d="M160,119.34a11.14,11.14,0,0,0,1.34,1.81A12.43,12.43,0,0,0,163,122.7a13.26,13.26,0,0,0,1.69,1,13.26,13.26,0,0,1-1.69-1,12.43,12.43,0,0,1-1.69-1.55,11.14,11.14,0,0,1-1.34-1.81,10.52,10.52,0,0,1-1.51-5.43V91.22h0v22.69A10.52,10.52,0,0,0,160,119.34Z"/><path class="cls-3" d="M458.05,88.71a10.69,10.69,0,0,0-1.78-3.81c-.13-.18-.26-.37-.4-.55a12.19,12.19,0,0,0-1.8-1.79L409.71,47.18,381.92,25,354.12,2.83h0l-.31-.23c-.17-.12-.33-.25-.5-.36l-.11-.07-.16-.1-.34-.2-.27-.17-.31-.16-.65-.32-.15-.07-.12,0a9.66,9.66,0,0,0-.94-.37l-.06,0h-.05c-.28-.1-.57-.18-.85-.25L349,.36l-.36-.07-.33-.07-.34-.06c-.25,0-.49-.07-.74-.09l-.28,0c-.33,0-.67,0-1,0h-.13c-.35,0-.7,0-1,.05h-.1l-.19,0c-.39,0-.77.1-1.16.17l-.08,0a9.68,9.68,0,0,0-1.06.27l-.23.06-.06,0a10.68,10.68,0,0,0-1.12.41,11.33,11.33,0,0,0-1.7.87l-.63.38a12.57,12.57,0,0,0-1.32,1.07c-.21.19-.43.38-.63.59A11,11,0,0,0,335.59,5c-.06.08-.14.15-.19.23a10.61,10.61,0,0,0-2,6.16V57H171a13.08,13.08,0,0,0-8.83,3.34,11.76,11.76,0,0,0-1.65,1.88,10.59,10.59,0,0,0-2,6.18v45.56a10.52,10.52,0,0,0,1.51,5.43,11.14,11.14,0,0,0,1.34,1.81A12.43,12.43,0,0,0,163,122.7a13.26,13.26,0,0,0,1.69,1,3.07,3.07,0,0,0,.31.17l.3.14c.26.12.52.24.79.34a13.41,13.41,0,0,0,4.86.9H333.4v45.56a10.47,10.47,0,0,0,.8,4l.06.12a10.66,10.66,0,0,0,.68,1.35,11.33,11.33,0,0,0,.95,1.35c.12.14.26.27.38.4.25.28.5.56.78.82a11.79,11.79,0,0,0,1.34,1.06,12.88,12.88,0,0,0,1.35.79c.32.17.65.33,1,.47h0l.7.25.42.15.09,0a1.52,1.52,0,0,0,.2.06c.23.07.46.12.69.17l.41.11h.05c.2,0,.41.06.61.09l.55.08.3,0c.36,0,.73.05,1.09.06h.09c.34,0,.68,0,1,0l.3,0,.47-.06.25,0,.34-.06a2.84,2.84,0,0,0,.31-.06l.38-.08.32-.07c.29-.08.59-.16.88-.26l.08,0c.14,0,.27-.1.41-.15l.53-.21.16-.07.12-.06.64-.31.3-.17.14-.08.47-.28.26-.17c.21-.14.4-.29.6-.44l.22-.16,83.13-66.33,16.82-13.41.1-.09a10.75,10.75,0,0,0,.92-.86l.38-.39a12.34,12.34,0,0,0,1-1.28l.12-.17a1.29,1.29,0,0,0,.09-.16,9.23,9.23,0,0,0,.52-.91,10.49,10.49,0,0,0,.84-2.29c0-.09,0-.18.05-.28a10.41,10.41,0,0,0,.23-2s0-.08,0-.12A10.34,10.34,0,0,0,458.05,88.71Z"/></g></g></svg>