<svg xmlns="http://www.w3.org/2000/svg" viewBox="0 0 458.34 328.34"><defs><style>.cls-1{fill:#2b8e8e;}.cls-2{fill:#fff;}.cls-3{fill:#ea922e;}</style></defs><g id="Calque_2" data-name="Calque 2"><g id="Capa_1" data-name="Capa 1"><path class="cls-1" d="M215.79,209.46l98,101.19A36.06,36.06,0,0,0,317,296V140.3H283.1Z"/><path class="cls-1" d="M176.84,249.74c-10.45,10.62-26.22,10.61-36.69,0l-25-25.84L16.67,325.57a24.54,24.54,0,0,0,11.19,2.77H289.13a24.5,24.5,0,0,0,11.19-2.77L201.83,223.9Z"/><path class="cls-1" d="M215.6,140.3c-44.82-1.67-77.32,12.44-72.1-49.19H28.08a24.35,24.35,0,0,0-11.15,2.75l72.64,74.77-.22.23c2,.84,67.33,72.8,69.15,67.29a8.6,8.6,0,0,0,6.34-2.64l90.55-93.21Z"/><path class="cls-1" d="M3.19,108.75A36.14,36.14,0,0,0,0,123.46V296a36.06,36.06,0,0,0,3.17,14.66l98-101.19Z"/><path class="cls-2" d="M457.85,94.2c.07-.22.15-.43.2-.66s0-.18.05-.28c0,.1,0,.19-.05.28S457.92,94,457.85,94.2Z"/><path class="cls-3" d="M458.05,88.71a10.94,10.94,0,0,0-2.18-4.36,12.19,12.19,0,0,0-1.8-1.79L409.71,47.18,354.12,2.82h0c-.26-.21-.53-.4-.81-.59L353,2.06l-.61-.37-.31-.16-.65-.32-.27-.12a9.66,9.66,0,0,0-.94-.37l-.11,0c-.28-.1-.57-.18-.85-.25L349,.36l-.69-.14-.34-.06c-.25,0-.49-.07-.74-.09l-.28,0c-.33,0-.67,0-1,0h-.13c-.35,0-.7,0-1,.05l-.27,0h0l-.14,0c-.34,0-.68.08-1,.15l-.09,0a9.68,9.68,0,0,0-1.06.27l-.29.08a10.68,10.68,0,0,0-1.12.41c-.27.11-.53.24-.78.37a11.72,11.72,0,0,0-1.55.88,12,12,0,0,0-1.95,1.66l-.18.23A10.36,10.36,0,0,0,334.39,7c-.13.29-.25.58-.36.88a10.5,10.5,0,0,0-.63,3.53V57H171a13.08,13.08,0,0,0-8.83,3.34,11.68,11.68,0,0,0-2.85,4,10.14,10.14,0,0,0-.47,1.41,10.24,10.24,0,0,0-.34,2.6v45.57a10.52,10.52,0,0,0,1.51,5.43,11.14,11.14,0,0,0,1.34,1.81,11.94,11.94,0,0,0,3.69,2.77,9.72,9.72,0,0,0,1.09.48,13.18,13.18,0,0,0,3.58.84c.42,0,.85.06,1.28.06H333.4v45.56a10.47,10.47,0,0,0,.8,4,11.23,11.23,0,0,0,1.69,2.82,12.08,12.08,0,0,0,1.16,1.22,11.79,11.79,0,0,0,1.34,1.06,12.77,12.77,0,0,0,2.34,1.26h0c.37.15.74.28,1.12.4l.26.07h0l.14,0,1,.24h.05c.39.07.78.13,1.16.17l.3,0c.37,0,.73.05,1.09.06h.09c.33,0,.65,0,1,0h0l.3,0h.08l.64-.08.35-.06.68-.14.32-.07c.29-.08.59-.16.88-.26l.08,0c.32-.1.63-.23.94-.36l.28-.13.64-.31.3-.17c.21-.11.41-.24.61-.36l.26-.17c.28-.19.55-.39.82-.6l83.13-66.33,16.82-13.41.1-.09a12.84,12.84,0,0,0,1.3-1.25,12,12,0,0,0,1.13-1.45,10.46,10.46,0,0,0,.61-1.07,9.84,9.84,0,0,0,.64-1.63c.07-.22.15-.43.2-.66s0-.18.05-.28a10.15,10.15,0,0,0,.24-2.13A10.34,10.34,0,0,0,458.05,88.71Z"/></g></g></svg>